<?xml version="1.0" encoding="UTF-8"?>
<!-- Generated by Pixelmator Pro 3.6.18 -->
<svg width="818" height="818" viewBox="0 0 818 818" xmlns="http://www.w3.org/2000/svg">
    <path id="digital-wave-2" fill="#00ff89" stroke="none" d="M -48 408.671631 L 17.066668 408.671631 L 17.066668 286.671631 L 82.133331 286.671631 L 82.133331 530.671631 L 147.199997 530.671631 L 147.199997 327.338318 L 212.266663 327.338318 L 212.266663 490.004974 L 277.333344 490.004974 L 277.333344 368.004974 L 342.399994 368.004974 L 342.399994 449.338318 L 407.466675 449.338318 L 407.466675 408.671631 L 496.933319 408.671631 Z"/>
    <path id="digital-wave-1" fill="#00ff89" stroke="none" d="M -65 408.671631 L 0.066667 408.671631 L 0.066667 286.671631 L 65.133331 286.671631 L 65.133331 530.671631 L 130.199997 530.671631 L 130.199997 327.338318 L 195.266663 327.338318 L 195.266663 490.004974 L 260.333344 490.004974 L 260.333344 368.004974 L 325.399994 368.004974 L 325.399994 449.338318 L 390.466675 449.338318 L 390.466675 408.671631 L 479.933319 408.671631 Z"/>
    <path id="analog-wave" fill="none" stroke="#74fbea" stroke-width="43" stroke-linecap="round" d="M 441 409.5 C 480.444458 347.5 519.888916 347.5 559.333313 409.5 C 598.777771 471.5 638.222229 471.5 677.666687 409.5 C 717.111084 347.5 756.555542 347.5 796 409.5"/>
    <path id="inflection" fill="#73fdff" fill-opacity="0.311938" stroke="#41b0f6" stroke-width="32" d="M 542 409 C 542 476.378723 487.378784 531 420 531 C 352.621277 531 298 476.378723 298 409 C 298 341.621277 352.621277 287 420 287 C 487.378784 287 542 341.621277 542 409 Z"/>
</svg>
